Coordinates
version=1
nRows=14
nColumns=40
inDegrees=yes

Units are S.I. units (second, meters, Newtons, ...)
If the header above contains a line with 'inDegrees', this indicates whether rotational values are in degrees (yes) or radians (no).

endheader
time	pelvis_tilt	pelvis_list	pelvis_rotation	pelvis_tx	pelvis_ty	pelvis_tz	hip_flexion_r	hip_adduction_r	hip_rotation_r	knee_angle_r	knee_angle_r_beta	ankle_angle_r	subtalar_angle_r	mtp_angle_r	hip_flexion_l	hip_adduction_l	hip_rotation_l	knee_angle_l	knee_angle_l_beta	ankle_angle_l	subtalar_angle_l	mtp_angle_l	lumbar_extension	lumbar_bending	lumbar_rotation	arm_flex_r	arm_add_r	arm_rot_r	elbow_flex_r	pro_sup_r	wrist_flex_r	wrist_dev_r	arm_flex_l	arm_add_l	arm_rot_l	elbow_flex_l	pro_sup_l	wrist_flex_l	wrist_dev_l
      3.28000000	    -30.34269139	     -1.70794944	     -2.67262190	     -0.43263127	      0.65980014	     -0.90616630	     88.51671554	    -10.98581138	      2.84956579	     97.32515656	      1.69864443	     37.13785243	      0.00000000	      0.00000000	     91.16305822	    -20.16048922	     10.52081887	     95.86064628	      1.67308390	     35.10300532	      0.00000000	      0.00000000	    -20.60670923	      1.18783164	      3.63539716	     11.02775798	    -54.95245180	     77.11372268	     92.54832674	     86.63884550	      0.00000000	      0.00000000	    -10.55152316	    -50.10141980	     47.27726312	     97.23865383	     87.67556193	      0.00000000	      0.00000000
      3.28500000	    -30.35959498	     -1.69983995	     -2.68722043	     -0.43268571	      0.65976306	     -0.90618143	     88.54390152	    -11.00755077	      2.80977500	     97.30751386	      1.69833650	     37.08545887	      0.00000000	      0.00000000	     91.18126716	    -20.17675855	     10.51394888	     95.86120806	      1.67309371	     35.12402317	      0.00000000	      0.00000000	    -20.62666288	      1.17102395	      3.73398230	     10.71395885	    -54.99037617	     76.70141985	     92.60308351	     86.81262320	      0.00000000	      0.00000000	    -10.35681563	    -50.16245462	     47.49617217	     97.26088047	     87.63890098	      0.00000000	      0.00000000
      3.29000000	    -30.38265970	     -1.76911175	     -2.66920485	     -0.43271423	      0.65973540	     -0.90623005	     88.54070459	    -11.01224147	      2.75173211	     97.31045779	      1.69838789	     37.10830325	      0.00000000	      0.00000000	     91.24716111	    -20.16625033	     10.57689377	     95.85943381	      1.67306274	     35.10013977	      0.00000000	      0.00000000	    -20.63853159	      1.26834941	      3.49125776	     11.47200133	    -54.94998064	     77.61974609	     92.56672787	     86.60765025	      0.00000000	      0.00000000	    -10.86888481	    -50.08031886	     46.95303434	     97.28044452	     87.68113746	      0.00000000	      0.00000000
      3.29500000	    -30.42595619	     -1.72041507	     -2.69330277	     -0.43277302	      0.65973623	     -0.90627912	     88.60241120	    -10.99507460	      2.81853401	     97.28535316	      1.69794973	     37.07752833	      0.00000000	      0.00000000	     91.25770873	    -20.13335736	     10.57446453	     95.85693116	      1.67301906	     35.06064972	      0.00000000	      0.00000000	    -20.60199012	      1.21567423	      3.51738051	     11.43851746	    -54.95731834	     77.58790487	     92.59187946	     86.62771188	      0.00000000	      0.00000000	    -10.78634207	    -50.08494349	     47.06553941	     97.25304306	     87.68410665	      0.00000000	      0.00000000
      3.30000000	    -30.49211860	     -1.74731378	     -2.68733599	     -0.43285627	      0.65969239	     -0.90629336	     88.66329280	    -11.03426503	      2.73580810	     97.27901475	      1.69783910	     37.08108488	      0.00000000	      0.00000000	     91.34464001	    -20.13241125	     10.59007326	     95.83077777	      1.67256260	     35.09686895	      0.00000000	      0.00000000	    -20.54695850	      1.24876123	      3.57090878	     11.26106220	    -54.96147343	     77.39615498	     92.56202998	     86.63006799	      0.00000000	      0.00000000	    -10.64587959	    -50.11441883	     47.20033550	     97.24427842	     87.65880680	      0.00000000	      0.00000000
      3.30500000	    -30.51342214	     -1.73654860	     -2.66315838	     -0.43295672	      0.65983224	     -0.90637551	     88.67958623	    -11.06186906	      2.74867975	     97.24148176	      1.69718403	     37.05701266	      0.00000000	      0.00000000	     91.34708178	    -20.09213518	     10.56866809	     95.79647976	      1.67196398	     35.06402295	      0.00000000	      0.00000000	    -20.54913906	      1.24896821	      3.52819297	     11.31475434	    -54.95259076	     77.43630291	     92.54912546	     86.65631850	      0.00000000	      0.00000000	    -10.64377885	    -50.11509569	     47.17834206	     97.23880528	     87.67553632	      0.00000000	      0.00000000
      3.31000000	    -30.51469300	     -1.72222568	     -2.63437314	     -0.43288770	      0.65996475	     -0.90667509	     88.67092369	    -11.12310942	      2.76522444	     97.23144284	      1.69700881	     36.99511206	      0.00000000	      0.00000000	     91.32668469	    -20.03691537	     10.53338169	     95.79749146	      1.67198164	     35.04240742	      0.00000000	      0.00000000	    -20.54999879	      1.26825671	      3.73921023	     10.63266533	    -55.04961890	     76.74029949	     92.57290214	     86.37038411	      0.00000000	      0.00000000	     -9.96839384	    -50.15209146	     47.90448542	     97.16165369	     87.78441145	      0.00000000	      0.00000000
      3.31500000	    -30.55995931	     -1.66955060	     -2.64210159	     -0.43291711	      0.66003584	     -0.90670676	     88.72272356	    -11.13898324	      2.79518706	     97.20052582	      1.69646921	     37.02038112	      0.00000000	      0.00000000	     91.32083924	    -20.00471341	     10.49973180	     95.74977934	      1.67114891	     35.12020484	      0.00000000	      0.00000000	    -20.50822121	      1.22210892	      3.48865329	     11.16889473	    -54.96217007	     77.29555578	     92.54771789	     86.62409871	      0.00000000	      0.00000000	    -10.53786683	    -50.11686915	     47.30829441	     97.20097180	     87.69188534	      0.00000000	      0.00000000
      3.32000000	    -30.60198487	     -1.67690199	     -2.63698121	     -0.43298481	      0.66015577	     -0.90675464	     88.75452123	    -11.14197765	      2.78889380	     97.16636833	      1.69587305	     36.96454446	      0.00000000	      0.00000000	     91.35618086	    -19.99131871	     10.50820249	     95.71960030	      1.67062218	     35.07892695	      0.00000000	      0.00000000	    -20.47488765	      1.22404464	      3.74717973	     10.38618568	    -55.03953798	     76.43102326	     92.59534286	     86.77549416	      0.00000000	      0.00000000	     -9.93897909	    -50.21673497	     47.96097175	     97.18985534	     87.64274973	      0.00000000	      0.00000000
      3.32500000	    -30.65801440	     -1.71236477	     -2.63948226	     -0.43302895	      0.66020705	     -0.90675271	     88.78906189	    -11.14380514	      2.72700759	     97.13557263	      1.69533556	     36.94548111	      0.00000000	      0.00000000	     91.42956243	    -19.99158838	     10.54927718	     95.70003749	      1.67028075	     35.01732125	      0.00000000	      0.00000000	    -20.41216363	      1.27395574	      3.65649380	     10.65530985	    -55.02040007	     76.72083146	     92.59366798	     86.74146132	      0.00000000	      0.00000000	    -10.23377467	    -50.15053209	     47.62815695	     97.19519902	     87.66517462	      0.00000000	      0.00000000
      3.33000000	    -30.59742398	     -1.64305882	     -2.63559795	     -0.43287900	      0.66056405	     -0.90685760	     88.71758512	    -11.17393937	      2.79707846	     97.10285117	      1.69476447	     36.88703999	      0.00000000	      0.00000000	     91.29406583	    -19.96556054	     10.45530141	     95.67479506	      1.66984019	     35.03428503	      0.00000000	      0.00000000	    -20.50047403	      1.19344179	      3.88506401	      9.79979192	    -55.09026223	     75.76559153	     92.68122457	     86.27384828	      0.00000000	      0.00000000	     -9.72116110	    -50.23634961	     48.09690234	     97.20754185	     87.86134736	      0.00000000	      0.00000000
      3.33500000	    -30.51194362	     -1.60048444	     -2.64754363	     -0.43259278	      0.66106399	     -0.90685751	     88.58291263	    -11.16712067	      2.82195826	     97.05489738	      1.69392751	     37.00671337	      0.00000000	      0.00000000	     91.10386040	    -19.99587636	     10.35074967	     95.61249514	      1.66875285	     35.17415254	      0.00000000	      0.00000000	    -20.57779746	      1.13696893	      3.98712273	      9.58363249	    -55.05832054	     75.57787552	     92.58093083	     86.28999364	      0.00000000	      0.00000000	     -9.33363307	    -50.25483528	     48.57522292	     97.07458237	     87.73800423	      0.00000000	      0.00000000
      3.34000000	    -30.66037844	     -1.60631292	     -2.67176977	     -0.43274673	      0.66123933	     -0.90683341	     88.65186339	    -11.09407556	      2.83579970	     96.88635704	      1.69098593	     37.48413195	      0.00000000	      0.00000000	     91.17863284	    -19.98413627	     10.35547791	     95.48031504	      1.66644587	     35.46564728	      0.00000000	      0.00000000	    -20.43532592	      1.14096150	      4.10412557	      9.14087168	    -55.05797849	     75.11527322	     92.59503365	     85.43365258	      0.00000000	      0.00000000	     -9.29681877	    -50.26826756	     48.56945059	     97.14507796	     87.69671341	      0.00000000	      0.00000000
      3.34500000	    -30.54086352	     -1.56121536	     -2.72176881	     -0.43263781	      0.66174434	     -0.90682050	     88.56653539	    -11.08167288	      2.86124057	     96.92667200	      1.69168956	     36.90144912	      0.00000000	      0.00000000	     91.04542803	    -20.06387237	     10.26268408	     95.50513331	      1.66687903	     35.09945002	      0.00000000	      0.00000000	    -20.57463681	      1.07408896	      4.08695366	      9.34577771	    -55.05096319	     75.23042353	     92.61169920	     86.74258589	      0.00000000	      0.00000000	     -9.39258461	    -50.25373824	     48.43662444	     97.12966853	     87.66945531	      0.00000000	      0.00000000
